<svg width="256" height="256" viewBox="0 0 256 256" fill="none" xmlns="http://www.w3.org/2000/svg">
<path fill-rule="evenodd" clip-rule="evenodd" d="M171.028 81.6752C182.84 104.463 152.191 180.356 129.268 184.492C108.729 188.198 73.7558 122.84 84.1045 97.3601C94.6356 71.4312 160.258 60.897 171.028 81.6752ZM129.125 151.803C141.758 151.803 151.999 140.71 151.999 127.027C151.999 113.344 141.758 102.252 129.125 102.252C116.491 102.252 106.25 113.344 106.25 127.027C106.25 140.71 116.491 151.803 129.125 151.803Z" fill="#FA4900"/>
<path fill-rule="evenodd" clip-rule="evenodd" d="M129.802 207.713C161.929 201.912 204.883 95.4767 188.329 63.5179C173.234 34.3778 81.264 49.1514 66.5045 85.515C52.0006 121.249 101.016 212.91 129.802 207.713Z" fill="#FA4900"/>
<path fill-rule="evenodd" clip-rule="evenodd" d="M97.6032 94.8519C89.1917 111.109 111.017 165.252 127.341 168.203C141.967 170.847 166.873 124.219 159.503 106.042C152.004 87.5438 105.273 80.0285 97.6032 94.8519ZM127.443 144.882C118.447 144.882 111.154 136.969 111.154 127.207C111.154 117.445 118.447 109.532 127.443 109.532C136.44 109.532 143.733 117.445 143.733 127.207C143.733 136.969 136.44 144.882 127.443 144.882Z" fill="white"/>
</svg>
